<svg width="160" height="42" viewBox="0 0 160 42" fill="none" xmlns="http://www.w3.org/2000/svg">
<path fill-rule="evenodd" clip-rule="evenodd" d="M143.655 31.6994C143.655 32.1686 143.349 32.4065 142.738 32.4065H141.649V37.1908C141.649 37.8979 141.371 38.2481 140.806 38.2481C140.275 38.2481 140.003 37.8912 140.003 37.1776V32.4065H138.954C138.323 32.4065 138.011 32.1752 138.011 31.6994C138.011 31.2302 138.33 30.9923 138.954 30.9923H142.705C143.336 30.9923 143.655 31.2236 143.655 31.6994Z" fill="#FBFAFA"/>
<path fill-rule="evenodd" clip-rule="evenodd" d="M135.674 33.9859C135.655 33.4969 135.509 33.0871 135.223 32.7567C134.938 32.4263 134.552 32.2611 134.074 32.2611C133.596 32.2611 133.185 32.4263 132.86 32.7567C132.534 33.0871 132.348 33.4969 132.315 33.9859H135.674ZM137.314 34.2039C137.314 34.4881 137.221 34.7128 137.036 34.878C136.843 35.0366 136.604 35.1225 136.305 35.1225H132.315C132.335 35.6379 132.514 36.0542 132.866 36.3714C133.218 36.6886 133.65 36.8472 134.167 36.8472C134.599 36.8472 135.084 36.7084 135.621 36.4375C136.159 36.1599 136.458 36.0278 136.511 36.0278C136.949 36.0278 137.168 36.2525 137.168 36.6952C137.168 36.834 137.102 36.9926 136.969 37.1644C136.69 37.5278 136.259 37.8186 135.681 38.0235C135.17 38.2085 134.652 38.301 134.121 38.301C133.079 38.301 132.229 37.9375 131.578 37.204C130.954 36.5102 130.649 35.6313 130.649 34.5806C130.649 33.5629 130.967 32.6907 131.598 31.977C132.235 31.2567 133.059 30.8998 134.074 30.8998C134.964 30.8998 135.728 31.2302 136.365 31.8845C136.996 32.5321 137.314 33.3052 137.314 34.2039Z" fill="#FBFAFA"/>
<path fill-rule="evenodd" clip-rule="evenodd" d="M129.958 37.5939C129.958 37.7855 129.885 37.9375 129.732 38.0631C129.586 38.182 129.407 38.2481 129.208 38.2481C128.909 38.2481 128.624 38.0961 128.358 37.7921L125.769 34.9044V37.1842C125.769 37.8979 125.49 38.2481 124.939 38.2481C124.395 38.2481 124.122 37.8913 124.122 37.1776V32.01C124.122 31.3095 124.395 30.9527 124.939 30.9527C125.49 30.9527 125.769 31.3095 125.769 32.0232V33.6686L128.132 31.3426C128.391 31.0849 128.657 30.9527 128.922 30.9527C129.122 30.9527 129.294 31.0188 129.427 31.1443C129.56 31.2699 129.633 31.4285 129.633 31.6333C129.633 31.8778 129.5 32.1157 129.241 32.3602L127.196 34.2502L129.639 36.7877C129.852 37.0124 129.958 37.2833 129.958 37.5939Z" fill="#FBFAFA"/>
<path fill-rule="evenodd" clip-rule="evenodd" d="M120.929 34.6136C120.929 34.0255 120.809 33.5431 120.564 33.1532C120.278 32.6906 119.853 32.4594 119.289 32.4594C118.731 32.4594 118.293 32.6774 117.975 33.107C117.696 33.4836 117.556 33.966 117.556 34.5409V34.8647C117.556 35.3868 117.702 35.8427 118.001 36.2194C118.326 36.6225 118.751 36.8273 119.276 36.8273C119.847 36.8273 120.278 36.5895 120.577 36.1203C120.809 35.7106 120.929 35.215 120.929 34.6136ZM122.595 34.6004C122.595 35.6048 122.33 36.4639 121.792 37.1644C121.208 37.9375 120.424 38.3208 119.442 38.3208C118.725 38.3208 118.127 38.0565 117.656 37.5212H117.616V40.0191C117.616 40.7592 117.35 41.1293 116.813 41.1293C116.255 41.1293 115.969 40.7592 115.969 40.0191V32.0232C115.969 31.3095 116.248 30.9527 116.799 30.9527C117.151 30.9527 117.384 31.1113 117.51 31.4351C117.53 31.5144 117.563 31.6201 117.616 31.7655C117.994 31.2236 118.612 30.9527 119.468 30.9527C120.458 30.9527 121.241 31.3228 121.812 32.0695C122.336 32.7435 122.595 33.5827 122.595 34.6004Z" fill="#FBFAFA"/>
<path fill-rule="evenodd" clip-rule="evenodd" d="M110.784 32.4263C110.213 32.4263 109.788 32.6642 109.496 33.14C109.251 33.5365 109.131 34.0321 109.131 34.6335C109.131 35.1885 109.257 35.6577 109.51 36.0476C109.815 36.5102 110.233 36.7349 110.758 36.7349C111.335 36.7349 111.774 36.5102 112.072 36.0608C112.325 35.6776 112.451 35.1885 112.451 34.5806C112.451 33.9925 112.331 33.5035 112.086 33.1136C111.787 32.6576 111.349 32.4263 110.784 32.4263ZM114.077 37.171C114.077 37.8847 113.812 38.2415 113.274 38.2415C112.942 38.2415 112.73 38.1027 112.63 37.8186C112.603 37.7063 112.557 37.5543 112.497 37.356H112.471C111.999 37.9508 111.395 38.2415 110.658 38.2415C110.213 38.2415 109.795 38.1556 109.41 37.9838C108.746 37.6798 108.242 37.2106 107.903 36.5763C107.591 35.9947 107.432 35.3207 107.432 34.5608C107.432 33.8141 107.598 33.14 107.93 32.5453C108.281 31.9109 108.779 31.4483 109.437 31.151C109.822 30.9792 110.213 30.8932 110.618 30.8932C111.355 30.8932 111.973 31.184 112.484 31.7589H112.497V31.7457C112.524 31.6532 112.564 31.5342 112.617 31.4087C112.73 31.1047 112.949 30.9527 113.274 30.9527C113.805 30.9527 114.077 31.303 114.077 32.01V37.171Z" fill="#FBFAFA"/>
<path fill-rule="evenodd" clip-rule="evenodd" d="M106.502 37.5609C106.502 37.7856 106.423 37.964 106.263 38.0961C106.104 38.2283 105.911 38.2944 105.686 38.2944C105.228 38.2944 104.955 38.0102 104.856 37.4419L104.172 33.2722C104.152 33.292 103.674 34.7194 102.725 37.5741C102.565 38.0499 102.306 38.2944 101.935 38.2944C101.569 38.2944 101.304 38.0565 101.144 37.5741L99.7303 33.2722C99.7104 33.292 99.478 34.6863 99.0332 37.4485C98.9469 38.0102 98.6681 38.2878 98.2033 38.2878C97.9776 38.2878 97.7851 38.2217 97.6257 38.0895C97.4664 37.9574 97.3867 37.7856 97.3867 37.5675C97.3867 37.4023 97.4465 37.0256 97.5593 36.4309L98.4423 31.8514C98.5552 31.2501 98.9137 30.9461 99.5112 30.9461C100.102 30.9461 100.481 31.2104 100.66 31.7391L101.908 35.6247H101.961L103.236 31.7457C103.408 31.2104 103.793 30.9461 104.378 30.9461C104.969 30.9461 105.327 31.2435 105.44 31.8448L106.316 36.4177C106.449 37.019 106.502 37.3957 106.502 37.5609Z" fill="#FBFAFA"/>
<path fill-rule="evenodd" clip-rule="evenodd" d="M94.8239 34.6136C94.8239 34.0255 94.7044 33.5431 94.4588 33.1532C94.1733 32.6906 93.7484 32.4594 93.1841 32.4594C92.6264 32.4594 92.1882 32.6774 91.8695 33.107C91.5907 33.4836 91.4512 33.966 91.4512 34.5409V34.8647C91.4512 35.3868 91.5973 35.8427 91.8961 36.2194C92.2214 36.6225 92.6463 36.8273 93.1708 36.8273C93.7417 36.8273 94.1733 36.5895 94.472 36.1203C94.7044 35.7106 94.8239 35.215 94.8239 34.6136ZM96.4903 34.6004C96.4903 35.6048 96.2248 36.4639 95.687 37.1644C95.1028 37.9375 94.3193 38.3208 93.3368 38.3208C92.6197 38.3208 92.0222 38.0565 91.5508 37.5212H91.511V40.0191C91.511 40.7592 91.2454 41.1293 90.7077 41.1293C90.15 41.1293 89.8645 40.7592 89.8645 40.0191V32.0232C89.8645 31.3095 90.1433 30.9527 90.6944 30.9527C91.0463 30.9527 91.2786 31.1113 91.4048 31.4351C91.4247 31.5144 91.4579 31.6201 91.511 31.7655C91.8894 31.2236 92.5069 30.9527 93.3633 30.9527C94.3525 30.9527 95.136 31.3228 95.7069 32.0695C96.2314 32.7435 96.4903 33.5827 96.4903 34.6004Z" fill="#FBFAFA"/>
<path fill-rule="evenodd" clip-rule="evenodd" d="M86.7641 33.9859C86.7442 33.4969 86.5982 33.0871 86.3127 32.7567C86.0272 32.4263 85.6421 32.2611 85.1641 32.2611C84.6861 32.2611 84.2811 32.4263 83.9492 32.7567C83.6238 33.0871 83.4379 33.4969 83.4047 33.9859H86.7641ZM88.404 34.2039C88.404 34.4881 88.3111 34.7128 88.1252 34.878C87.9326 35.0366 87.6936 35.1225 87.3949 35.1225H83.4047C83.4247 35.6379 83.6039 36.0542 83.9558 36.3714C84.3077 36.6886 84.7392 36.8472 85.2571 36.8472C85.6886 36.8472 86.1733 36.7084 86.711 36.4375C87.2488 36.1599 87.5476 36.0278 87.6007 36.0278C88.0389 36.0278 88.2579 36.2525 88.2579 36.6952C88.2579 36.834 88.1916 36.9926 88.0588 37.1644C87.7799 37.5278 87.3484 37.8186 86.7708 38.0235C86.2662 38.2085 85.7417 38.301 85.2106 38.301C84.1682 38.301 83.3184 37.9375 82.6612 37.204C82.0371 36.5102 81.7317 35.6313 81.7317 34.5806C81.7317 33.5629 82.0504 32.6907 82.6811 31.977C83.3184 31.2567 84.1417 30.8998 85.1575 30.8998C86.0538 30.8998 86.8173 31.2302 87.448 31.8845C88.0853 32.5321 88.404 33.3052 88.404 34.2039Z" fill="#FBFAFA"/>
<path fill-rule="evenodd" clip-rule="evenodd" d="M80.1847 37.171C80.1847 37.8847 79.9058 38.2415 79.3548 38.2415C78.8104 38.2415 78.5382 37.8847 78.5382 37.171V32.3602H75.6767V37.171C75.6767 37.8847 75.3979 38.2415 74.8535 38.2415C74.3091 38.2415 74.0369 37.8847 74.0369 37.171V31.9836C74.0369 31.2963 74.3091 30.9527 74.8535 30.9527H79.3548C79.9058 30.9527 80.1847 31.2897 80.1847 31.9704V37.171Z" fill="#FBFAFA"/>
<path fill-rule="evenodd" clip-rule="evenodd" d="M72.2574 37.1974C72.2574 37.8912 71.9852 38.2415 71.4408 38.2415C70.8898 38.2415 70.6109 37.8979 70.6109 37.2106V33.8272L67.4374 37.3296C67.3777 37.9375 67.1055 38.2415 66.6341 38.2415C66.083 38.2415 65.8042 37.8912 65.8042 37.1974V31.9902C65.8042 31.2963 66.083 30.9461 66.6341 30.9461C67.1785 30.9461 67.4507 31.2963 67.4507 31.9902V35.5123L70.5976 31.9042C70.6773 31.2633 70.9628 30.9395 71.4541 30.9395C71.9919 30.9395 72.2574 31.2831 72.2574 31.9703V37.1974Z" fill="#FBFAFA"/>
<path fill-rule="evenodd" clip-rule="evenodd" d="M64.7354 31.6994C64.7354 32.1686 64.4234 32.4065 63.7927 32.4065H62.2591V37.1908C62.2591 37.8979 61.9802 38.2481 61.4159 38.2481C60.8848 38.2481 60.6125 37.8912 60.6125 37.1776V32.0496C60.6125 31.3492 60.8914 30.9923 61.4557 30.9923H63.7927C64.4168 30.9923 64.7354 31.2236 64.7354 31.6994Z" fill="#FBFAFA"/>
<path fill-rule="evenodd" clip-rule="evenodd" d="M54.4979 37.1974C54.4979 37.8913 54.2257 38.2415 53.6879 38.2415C53.1369 38.2415 52.858 37.8979 52.858 37.2106V33.7876L49.6779 37.7856C49.4322 38.0895 49.1667 38.2415 48.8746 38.2415C48.3235 38.2415 48.0447 37.8913 48.0447 37.1974V31.9902C48.0447 31.2963 48.3169 30.9461 48.8746 30.9461C49.419 30.9461 49.6912 31.2963 49.6912 31.9968V35.5322L52.8447 31.4814C53.1236 31.1245 53.4091 30.9461 53.6945 30.9461C54.2257 30.9461 54.4979 31.2897 54.4979 31.977V37.1974Z" fill="#FBFAFA"/>
<path fill-rule="evenodd" clip-rule="evenodd" d="M53.1834 29.0297C53.1834 29.4328 52.9577 29.7632 52.5129 30.0341C52.1278 30.2588 51.7162 30.3712 51.278 30.3712C50.8598 30.3712 50.4482 30.2522 50.0432 30.0209C49.5851 29.75 49.3594 29.4196 49.3594 29.0297C49.3594 28.6729 49.5453 28.4944 49.9104 28.4944C50.1029 28.4944 50.3154 28.6266 50.5544 28.8843C50.7934 29.142 51.0324 29.2742 51.278 29.2742C51.5436 29.2742 51.7826 29.142 52.0083 28.8843C52.2341 28.62 52.4332 28.4944 52.6191 28.4944C52.9975 28.4944 53.1834 28.6729 53.1834 29.0297Z" fill="#FBFAFA"/>
<path fill-rule="evenodd" clip-rule="evenodd" d="M46.2654 37.1974C46.2654 37.8912 45.9932 38.2415 45.4555 38.2415C44.9044 38.2415 44.6256 37.8979 44.6256 37.2106V33.8272L41.4521 37.3296C41.3923 37.9375 41.1268 38.2415 40.6487 38.2415C40.0977 38.2415 39.8188 37.8912 39.8188 37.1974V31.9902C39.8188 31.2963 40.0977 30.9461 40.6487 30.9461C41.1931 30.9461 41.4653 31.2963 41.4653 31.9902V35.5123L44.6123 31.9042C44.692 31.2633 44.9774 30.9395 45.4687 30.9395C46.0065 30.9395 46.2721 31.2831 46.2721 31.9703V37.1974H46.2654Z" fill="#FBFAFA"/>
<path fill-rule="evenodd" clip-rule="evenodd" d="M38.7697 37.5939C38.7697 37.7855 38.6967 37.9375 38.544 38.0631C38.3979 38.182 38.2186 38.2481 38.0195 38.2481C37.7207 38.2481 37.4352 38.0961 37.163 37.7921L34.5738 34.9044V37.1842C34.5738 37.8979 34.3015 38.2481 33.7439 38.2481C33.1995 38.2481 32.9272 37.8913 32.9272 37.1776V32.01C32.9272 31.3095 33.1995 30.9527 33.7439 30.9527C34.2949 30.9527 34.5738 31.3095 34.5738 32.0232V33.6686L36.9373 31.3426C37.2029 31.0849 37.4618 30.9527 37.7273 30.9527C37.9265 30.9527 38.0991 31.0188 38.2319 31.1443C38.3647 31.2699 38.4377 31.4285 38.4377 31.6333C38.4377 31.8778 38.305 32.1157 38.046 32.3602L36.0012 34.2502L38.4444 36.7877C38.6568 37.0124 38.7697 37.2833 38.7697 37.5939Z" fill="#FBFAFA"/>
<path fill-rule="evenodd" clip-rule="evenodd" d="M29.2359 30.8998C29.7139 30.8998 30.1654 30.9791 30.577 31.1377C31.1281 31.3492 31.4069 31.6466 31.4069 32.0364C31.4069 32.499 31.1878 32.7303 30.7496 32.7303C30.5571 32.7303 30.338 32.6774 30.0923 32.5651C29.8467 32.4594 29.5679 32.3999 29.2625 32.3999C28.6981 32.3999 28.2533 32.6378 27.9346 33.1004C27.6425 33.5101 27.4965 34.0057 27.4965 34.5872C27.4965 35.215 27.6359 35.7172 27.9214 36.1137C28.2334 36.563 28.6981 36.7877 29.3023 36.7877C29.5214 36.7877 29.8069 36.7216 30.1587 36.5829C30.5106 36.4507 30.7231 36.378 30.8027 36.378C31.0019 36.378 31.1679 36.4441 31.294 36.5829C31.4135 36.715 31.4799 36.8868 31.4799 37.0851C31.4799 37.5477 31.0749 37.8979 30.2716 38.1424C29.9463 38.2349 29.5944 38.2878 29.2093 38.2878C28.1604 38.2878 27.3305 37.9243 26.713 37.204C26.1288 36.5234 25.8367 35.6511 25.8367 34.5938C25.8367 33.5497 26.1354 32.684 26.7396 31.9968C27.3703 31.2633 28.2068 30.8998 29.2359 30.8998Z" fill="#FBFAFA"/>
<path fill-rule="evenodd" clip-rule="evenodd" d="M25.0534 31.6994C25.0534 32.1686 24.748 32.4065 24.1372 32.4065H23.0418V37.1908C23.0418 37.8979 22.7629 38.2481 22.2052 38.2481C21.6741 38.2481 21.4019 37.8912 21.4019 37.1776V32.4065H20.3529C19.7222 32.4065 19.4102 32.1752 19.4102 31.6994C19.4102 31.2302 19.7288 30.9923 20.3529 30.9923H24.104C24.7347 30.9923 25.0534 31.2236 25.0534 31.6994Z" fill="#FBFAFA"/>
<path fill-rule="evenodd" clip-rule="evenodd" d="M17.073 33.9859C17.0531 33.4969 16.907 33.0871 16.6215 32.7567C16.336 32.4263 15.951 32.2611 15.4729 32.2611C14.9949 32.2611 14.5833 32.4263 14.258 32.7567C13.9327 33.0871 13.7468 33.4969 13.7136 33.9859H17.073ZM18.7128 34.2039C18.7128 34.4881 18.6199 34.7128 18.434 34.878C18.2415 35.0366 18.0024 35.1225 17.7037 35.1225H13.7136C13.7335 35.6379 13.9128 36.0542 14.2646 36.3714C14.6165 36.6886 15.048 36.8472 15.5659 36.8472C15.9974 36.8472 16.4821 36.7084 17.0199 36.4375C17.5576 36.1599 17.8564 36.0278 17.9095 36.0278C18.3477 36.0278 18.5668 36.2525 18.5668 36.6952C18.5668 36.834 18.5004 36.9926 18.3676 37.1644C18.0888 37.5278 17.6572 37.8186 17.0796 38.0235C16.575 38.2085 16.0505 38.301 15.5194 38.301C14.4771 38.301 13.6273 37.9375 12.97 37.204C12.3459 36.5102 12.0405 35.6313 12.0405 34.5806C12.0405 33.5629 12.3592 32.6907 12.9899 31.977C13.6273 31.2567 14.4505 30.8998 15.4663 30.8998C16.3559 30.8998 17.1194 31.2302 17.7568 31.8845C18.3942 32.5321 18.7128 33.3052 18.7128 34.2039Z" fill="#FBFAFA"/>
<path fill-rule="evenodd" clip-rule="evenodd" d="M8.66794 36.8736V32.3404H6.76915C6.41063 32.3404 6.23138 32.5188 6.23138 32.8757V35.8427C6.23138 36.2458 6.14507 36.5894 5.97245 36.8736H8.66794ZM11.2041 38.9618C11.2041 39.5036 10.9319 39.7746 10.3875 39.7746C9.97584 39.7746 9.77003 39.5036 9.77003 38.9618V38.1622H4.96994V38.9618C4.96994 39.5036 4.75749 39.7746 4.32595 39.7746C3.80145 39.7746 3.53589 39.5036 3.53589 38.9618V37.6666C3.53589 37.2899 3.63548 37.0586 3.83465 36.9595C4.00727 36.8868 4.18652 36.8207 4.37242 36.748C4.57159 36.6027 4.67118 36.2855 4.67118 35.8097V32.7897C4.67118 32.1355 4.8438 31.6664 5.18239 31.3756C5.49443 31.1113 5.99237 30.9857 6.66292 30.9857H9.52438C10.0422 30.9857 10.3012 31.336 10.3012 32.0298V36.8736H10.4074C10.9319 36.867 11.1974 37.0983 11.1974 37.5807V38.9618H11.2041Z" fill="#FBFAFA"/>
<path fill-rule="evenodd" clip-rule="evenodd" d="M52.7782 8.53115C53.3027 8.4915 53.8471 8.47828 54.3849 8.4915C54.7235 8.49811 55.0289 8.51793 55.3011 8.55097C56.5426 8.68974 57.7775 9.06641 58.7601 9.85278C59.8953 10.7581 60.6257 12.0665 60.5792 13.9366C60.5725 14.1613 60.5593 14.3596 60.5393 14.5248C60.5327 14.5842 60.5261 14.6437 60.5128 14.7032L59.2845 24.2123C59.2845 24.2388 59.2779 24.2586 59.2713 24.285C59.1186 25.2564 58.8198 26.1419 58.0563 26.9019C57.2995 27.6486 56.2571 28.0979 54.7036 28.0913L52.2404 28.1244C52.2272 28.1244 52.2139 28.1244 52.2072 28.1244H52.2006H52.1807C52.0147 28.1244 51.8487 28.1112 51.6894 28.0913C50.7865 27.9724 49.9831 27.5825 49.379 26.8688C49.3391 26.9085 49.2993 26.9547 49.2595 26.9944C48.4761 27.7874 47.5399 28.1046 46.4777 28.1178C46.471 28.1178 46.4578 28.1178 46.4511 28.1178V28.1244H43.676C43.583 28.1244 43.4834 28.1178 43.3905 28.1046C43.3108 28.0979 43.2444 28.0979 43.198 28.0913C42.1955 27.9658 41.3921 27.5296 40.7946 26.8886C40.7149 26.9878 40.6286 27.0737 40.5357 27.1596C40.051 27.6089 39.4336 27.9327 38.7497 28.0385C38.6834 28.0451 38.6236 28.0583 38.5572 28.0583V28.0649C36.5522 28.2103 33.8169 28.2103 31.533 26.9415C30.577 26.4129 29.7338 25.6992 29.0766 24.741C28.9504 25.2168 28.7446 25.7388 28.3994 26.2477C27.689 27.2984 26.547 28.1178 24.6682 28.1244V28.131H21.986C21.9129 28.131 21.8333 28.1244 21.7602 28.1178C21.7337 28.1178 21.7138 28.1178 21.7005 28.1178C20.7378 28.0517 19.8681 27.6552 19.1909 26.9746C19.1312 27.034 19.078 27.0869 19.0183 27.1398C18.3013 27.7808 17.3718 28.1178 16.4357 28.1244C16.3826 28.1244 16.3427 28.1244 16.3029 28.1244V28.131H13.4481C13.3817 28.131 13.3153 28.131 13.2489 28.1244C12.18 28.0913 11.3899 27.642 10.8123 27.0142C10.7526 26.9547 10.6995 26.8886 10.6464 26.8226C10.6132 26.8556 10.58 26.8953 10.5468 26.9283C9.82311 27.6816 8.83388 28.1706 7.47286 28.1244V28.131H5.00311C4.98319 28.131 4.95663 28.131 4.93671 28.131C4.63795 28.1376 4.35247 28.1112 4.08691 28.0583C3.17071 27.8865 2.43377 27.4239 1.90928 26.816C1.36487 26.1882 1.05947 25.415 1.00636 24.6287C0.986438 24.3379 1.00636 24.0405 1.05947 23.7564L1.59724 19.8708C1.60388 19.8443 1.60388 19.8179 1.61052 19.7915L3.21054 7.36811C3.31013 5.97379 3.88109 4.89005 4.69771 4.1235C5.62718 3.25783 6.84214 2.84151 8.05046 2.86134V2.85473H13.6406C13.7601 2.85473 13.873 2.86134 13.9858 2.88116C14.0921 2.88777 14.1717 2.88777 14.2182 2.89438C16.0705 3.04637 17.8764 3.7997 19.2241 5.10812C19.5162 5.38566 19.7818 5.68964 20.0208 6.02004C20.0274 5.84162 20.0407 5.63677 20.0739 5.39227C20.2664 3.89221 21.0366 2.54415 22.132 1.57935C23.2408 0.601344 24.6748 0 26.1885 0C26.3877 0 26.6201 0.0198245 26.8989 0.0528654C28.2267 0.224678 29.362 0.845846 30.1786 1.77099C30.9953 2.69613 31.4666 3.90543 31.4666 5.22706C31.4666 5.4187 31.4467 5.65659 31.4135 5.94075C31.221 7.42758 30.4641 8.76243 29.382 9.72723C29.5612 9.89904 29.7139 10.0907 29.8533 10.2955C30.1123 10.6854 30.2915 11.1017 30.3911 11.5246C31.2343 10.5797 32.2169 9.88582 33.2725 9.3836C35.7887 8.19413 38.5506 8.20735 40.5025 8.38577C40.5556 8.39238 40.6153 8.39898 40.6685 8.40559V8.39898C40.9871 8.45185 41.2859 8.55097 41.5581 8.68974L41.817 6.59495C41.8237 6.52887 41.8369 6.46279 41.8502 6.40332C41.9631 5.75572 42.2685 4.75128 43.0585 3.95169C43.6959 3.30409 44.5855 2.8283 45.8204 2.79526C45.8403 2.79526 45.8536 2.79526 45.8735 2.79526V2.78865H49.0669C49.1732 2.78865 49.286 2.79526 49.3923 2.80847C49.5118 2.82169 49.6246 2.83491 49.7375 2.85473C51.0454 3.07941 51.8819 3.72701 52.3931 4.51999C52.8911 5.29315 53.0239 6.1456 52.9774 6.84607C52.9707 6.94519 52.9575 7.04431 52.9442 7.14343L52.7782 8.53115ZM62.0796 23.3533L64.2307 6.78659H64.2241C64.3768 5.53104 64.9012 4.58607 65.6979 3.91204C66.5345 3.20496 67.5768 2.88116 68.732 2.86134C68.7453 2.86134 68.7519 2.86134 68.7652 2.86134V2.85473H76.7654V2.86134C78.4119 2.86795 79.5007 3.3966 80.2044 4.24245C80.9613 5.15437 81.1206 6.23151 80.9679 7.33507C80.9679 7.35489 80.9613 7.38133 80.9546 7.40115L80.6824 9.32413C80.6227 9.866 80.4766 10.3418 80.2708 10.7515C80.2841 10.7317 80.2974 10.7185 80.3106 10.6986C81.3065 9.46951 82.8667 8.59062 85.4825 8.59062H91.0328C91.1457 8.59062 91.2519 8.59723 91.3581 8.61705C91.4445 8.62366 91.5374 8.63688 91.6237 8.65009C92.666 8.79548 93.7615 9.25144 94.598 10.2559C94.7242 10.4079 94.8437 10.5731 94.9565 10.7449C95.1424 10.4872 95.3416 10.2493 95.5673 10.0312C96.5234 9.09945 97.7583 8.59062 99.2853 8.60384V8.59723H101.43C102.459 8.59723 103.156 8.99372 103.7 9.49594C104.57 9.00033 105.898 8.59723 108.042 8.59723C110.306 8.59723 111.627 9.0598 112.451 9.61489C113.281 9.07963 114.502 8.59723 116.454 8.59723C118.618 8.59723 119.973 9.13249 120.849 10.1237C120.916 10.0444 120.989 9.97173 121.068 9.89904C121.294 9.68097 121.54 9.49594 121.792 9.33735C121.088 8.44524 120.683 7.32185 120.683 6.09934C120.683 5.90771 120.703 5.66981 120.736 5.38566C120.929 3.8856 121.706 2.53754 122.794 1.57274C123.896 0.601344 125.331 0 126.844 0C127.043 0 127.276 0.0198245 127.555 0.0528654C128.882 0.224678 130.024 0.845846 130.834 1.77099C131.425 2.44502 131.837 3.25783 132.016 4.16315C132.056 4.11689 132.096 4.07724 132.142 4.03098C132.846 3.32391 133.829 2.80847 135.17 2.8283V2.82169H137.938V2.8283C138.117 2.8283 138.283 2.83491 138.43 2.84812C139.864 2.98689 140.806 3.64771 141.404 4.50016C141.955 5.28654 142.141 6.19846 142.141 6.96501C142.141 7.12361 142.134 7.26899 142.121 7.39454C142.121 7.41437 142.114 7.43419 142.114 7.45402H142.121L141.875 9.40343C142.539 8.92764 143.429 8.60384 144.637 8.60384V8.59723H147.306V8.60384C147.565 8.59723 147.817 8.62366 148.056 8.66331C148.913 8.82191 149.663 9.25144 150.214 9.85939C150.891 9.11928 151.86 8.60384 153.275 8.60384V8.59723H155.95V8.60384C156.216 8.60384 156.475 8.62366 156.714 8.6567C158.015 8.86156 158.851 9.52237 159.383 10.3748C159.841 11.1083 159.993 11.9277 160 12.6414C160 12.8463 159.987 13.0511 159.967 13.2362C159.967 13.2956 159.96 13.3485 159.954 13.408L158.154 27.6354C157.862 29.9681 156.468 31.5012 154.616 32.4593C152.564 33.5233 149.942 33.8074 147.917 33.7149C147.286 33.7017 146.662 33.4175 146.237 32.8889C145.474 31.9439 145.613 30.5694 146.549 29.7962L146.536 29.7896C146.509 29.8029 146.483 29.8029 146.503 29.7764C146.589 29.5914 146.675 29.3337 146.748 28.99C146.808 28.7059 146.861 28.3953 146.908 28.0715C146.569 28.1046 146.211 28.1178 145.839 28.1178C145.513 28.1178 145.235 28.1112 145.002 28.1046C143.289 28.0186 141.875 27.6089 140.833 26.8688C140.335 26.5186 139.923 26.1089 139.611 25.6397C139.359 26.175 139 26.6706 138.503 27.0935C137.746 27.7213 136.737 28.1178 135.402 28.1178V28.1244H132.647C132.534 28.1244 132.421 28.1178 132.315 28.0979C132.242 28.0913 132.175 28.0847 132.109 28.0715C130.848 27.8997 129.971 27.2785 129.4 26.4855C129.287 26.327 129.188 26.1684 129.102 25.9965C129.055 26.0758 129.009 26.1551 128.955 26.2278C128.245 27.2785 127.103 28.0979 125.224 28.1046V28.1112H122.542C122.469 28.1112 122.396 28.1046 122.316 28.0979C122.29 28.0979 122.27 28.0979 122.257 28.0979C121.274 28.0253 120.384 27.6155 119.701 26.9085C119.568 27.0671 119.422 27.2124 119.262 27.3446C118.698 27.8072 117.961 28.0979 117.178 28.1046C117.171 28.1046 117.164 28.1046 117.158 28.1046V28.1112H112.802C112.683 28.1112 112.563 28.1046 112.451 28.0847C112.431 28.0847 112.404 28.0781 112.384 28.0781C111.707 27.9922 111.036 27.7015 110.519 27.1926C109.855 27.7874 108.985 28.0979 108.122 28.1046H108.115V28.1112H104.145C103.979 28.1112 103.813 28.0913 103.66 28.0583C103.01 27.946 102.465 27.6684 102.027 27.2455C101.456 27.7741 100.686 28.1112 99.6106 28.1046V28.1112H95.74C95.6271 28.1112 95.5209 28.1046 95.408 28.0847C95.3615 28.0781 95.3217 28.0781 95.2819 28.0715C94.6113 27.9724 93.9009 27.6684 93.3565 27.1596C93.2171 27.034 93.091 26.8886 92.9781 26.7433C92.1548 27.5164 90.9864 28.0451 89.2668 28.1046C89.2403 28.1046 89.2137 28.1046 89.1872 28.1046V28.1112H85.0377C84.9647 28.1112 84.885 28.1046 84.812 28.0979C83.026 28.0715 81.187 27.8733 79.6799 27.0406C77.7745 25.9899 76.5728 24.2057 76.8251 21.1461C76.8251 21.1263 76.8317 21.1065 76.8317 21.0867C76.4467 21.199 76.1081 21.2453 75.8558 21.2651C75.7894 21.2717 75.7297 21.2717 75.6633 21.2717V21.2783H73.0674L72.7089 24.0471C72.7022 24.0736 72.7022 24.1 72.6956 24.1264C72.669 24.2718 72.6956 24.1397 72.669 24.2982C72.43 25.904 72.1047 28.0517 68.6258 28.0913C68.6191 28.0913 68.6059 28.0913 68.5992 28.0913V28.0979H65.8506C65.7643 28.0979 65.6714 28.0913 65.5851 28.0847C65.5253 28.0781 65.4722 28.0781 65.4257 28.0715C64.6822 27.9922 63.8257 27.675 63.1352 26.9944C62.4713 26.3402 61.9933 25.3952 62 24.0802C62 23.8621 62.0132 23.6705 62.0331 23.4987C62.0597 23.4722 62.0663 23.4128 62.0796 23.3533Z" fill="white"/>
<path fill-rule="evenodd" clip-rule="evenodd" d="M142.314 12.8463L141.045 22.7255C140.933 24.9062 142.685 25.9172 145.812 25.904C147.691 25.8974 148.979 25.4679 149.53 24.5097C149.344 25.9635 149.218 27.9988 148.906 29.446C148.647 30.6619 148.209 31.2963 147.957 31.5011C150.971 31.6465 155.486 30.8668 155.93 27.3644L157.73 13.137C157.856 12.3176 157.73 10.7977 155.944 10.811H153.268C151.701 10.8176 151.349 12.007 151.283 12.8331L150.38 19.6064C150.221 20.9281 147.917 20.8289 148.043 19.6064L148.939 12.8C149.139 11.7031 148.335 10.7845 147.286 10.811H144.617C142.619 10.8176 142.38 12.2581 142.314 12.8463ZM120.69 23.459L121.905 13.0974C122.051 11.3727 123.319 10.8638 124.222 10.8572H127.024C128.67 10.8969 128.929 12.0467 128.783 13.0974L127.588 23.459C127.475 24.3445 127.156 25.904 125.204 25.9106H122.522C121.447 25.904 120.577 24.9855 120.69 23.459ZM126.824 2.22034C128.73 2.22034 130.084 3.76665 129.839 5.66319C129.593 7.55974 127.84 9.10605 125.935 9.10605C124.029 9.10605 122.675 7.55974 122.921 5.66319C123.166 3.76665 124.919 2.22034 126.824 2.22034ZM41.0868 11.5246L40.6088 15.3111C38.6237 15.3838 37.9532 16.6262 37.7274 17.928C37.4884 19.3091 37.8602 20.9809 39.8719 20.9347L39.3607 24.9392C39.2478 25.3886 38.8494 25.7653 38.398 25.8379C34.9788 26.0891 29.1762 25.8908 30.0327 18.1592C30.8759 10.5004 36.9573 10.2889 40.3034 10.5863C40.7681 10.6656 41.1001 11.0687 41.0868 11.5246ZM3.25047 24.1529L3.80152 20.1681L5.43474 7.52009C5.55425 5.83501 6.8024 5.04203 8.05056 5.07507H13.6407L13.654 5.08168C16.6217 5.15437 19.5163 7.24916 19.1976 11.0885C18.9321 14.2736 16.3362 16.4874 13.2224 17.0094C14.5436 17.1284 17.7901 17.4257 18.0823 24.133C18.0955 25.3291 17.186 25.9569 16.303 25.904H13.4482C12.3262 25.9371 12.0407 24.8996 11.9876 24.3181C11.8282 22.5669 10.9519 21.7871 9.86304 21.6219L9.51116 24.1595C9.33191 25.0648 8.83397 25.9701 7.47295 25.904H5.0032C3.76169 25.9833 3.09114 24.9987 3.25047 24.1529ZM10.8124 13.0577L11.2838 9.37038C13.3353 9.45629 12.8639 12.0203 10.8124 13.0577ZM26.1886 2.22034C28.0941 2.22034 29.4484 3.76665 29.2028 5.66319C28.9571 7.55974 27.2111 9.10605 25.299 9.10605C23.3936 9.10605 22.0392 7.55974 22.2848 5.66319C22.5305 3.76665 24.2832 2.22034 26.1886 2.22034ZM20.1537 23.459L21.3686 13.0974C21.5147 11.3727 22.7828 10.8638 23.6857 10.8572H26.494C28.1405 10.8969 28.3995 12.0467 28.2534 13.0974L27.0517 23.459C26.9389 24.3445 26.6202 25.904 24.6683 25.9106H21.9861C20.9105 25.904 20.0474 24.9855 20.1537 23.459ZM50.1559 11.6436C50.448 11.0158 52.3866 10.6524 54.3319 10.6986C56.3966 10.7515 58.6407 11.4982 58.322 14.2736L57.0738 23.9282C56.8946 25.045 56.4829 25.8842 54.6837 25.871L52.214 25.904C51.258 25.8974 50.5609 25.2895 50.7534 23.8026L51.497 17.8949C51.7161 16.5072 49.4521 16.5204 49.2729 17.7495L48.3367 23.8092C48.0977 25.3754 47.4139 25.8842 46.4446 25.8974H43.6694C42.4146 25.8578 41.8238 24.8401 41.9632 23.7035L44.0346 6.85927C44.1143 6.28436 44.4661 5.03542 45.8736 4.99577H49.067C50.6472 5.1015 50.8397 6.21828 50.7268 6.87249L50.1559 11.6436ZM130.894 23.9678L132.992 7.18968C133.032 6.56851 133.49 5.00238 135.143 5.03542H137.912C139.631 5.04203 139.957 6.36366 139.877 7.18307L137.799 23.8885C137.659 24.9458 137.029 25.904 135.376 25.904H132.62C131.2 25.8379 130.788 24.7542 130.894 23.9678ZM94.5849 24.6617L95.9924 14.0225C96.3575 12.0136 97.4131 10.7845 99.2787 10.8176H101.423C102.426 10.8176 102.99 12.5093 103.548 12.4762C104.105 12.4432 104.046 10.8176 108.029 10.8176C112.013 10.8176 111.647 12.4762 112.265 12.4762C112.882 12.4762 113.307 10.8176 116.441 10.8176C119.575 10.8176 119.814 12.1062 119.608 14.267L118.2 25.0317C118.094 25.5208 117.636 25.904 117.131 25.9106H112.803C112.258 25.904 111.72 25.5406 111.82 24.7806L112.696 17.9015C112.61 16.7847 110.399 16.9169 110.339 17.9015L109.47 24.6683C109.377 25.4877 108.753 25.9106 108.115 25.9106H104.145C103.554 25.8578 103.256 25.4481 103.355 24.7344L104.218 17.9015C104.338 16.9962 101.901 16.8905 101.821 17.9015L100.985 24.5097C100.885 25.1573 100.699 25.9172 99.604 25.904H95.7401C95.1625 25.8842 94.4653 25.4679 94.5849 24.6617ZM86.4387 19.2562L85.954 23.0361C83.856 22.9502 84.3341 20.3201 86.4387 19.2562ZM81.0875 14.6437C81.4128 12.9322 81.8444 10.8176 85.476 10.8176H91.0263C92.3209 10.8903 93.8877 11.6965 93.4496 14.7957L92.3607 23.1352C92.1616 24.404 91.6836 25.8247 89.1939 25.9106H85.0444C81.9373 25.8842 78.7174 25.3754 79.0559 21.351C79.3215 18.1659 82.7207 15.9521 85.8345 15.4367C85.4627 14.1217 83.2984 14.8155 81.0875 14.6437ZM64.264 23.7762L66.435 7.05091C66.601 5.66319 67.5304 5.1015 68.7587 5.08168H76.7588C78.5381 5.08828 78.9033 5.97378 78.7505 7.03109L78.4584 9.07962C78.2858 10.5532 76.9381 10.8374 76.1746 10.8242H72.1778L71.6533 14.9146H76.2011C77.2966 14.9543 77.6153 15.5028 77.5555 16.19L77.363 17.6306C77.2368 18.8597 76.1414 19.0513 75.6634 19.091H71.1156L70.5048 23.8026C70.372 24.6154 70.3322 25.8908 68.6126 25.9106H65.864C65.1536 25.904 64.0847 25.4348 64.264 23.7762Z" fill="#ED1C24"/>
</svg>
